<svg version="1.2" baseProfile="tiny-ps" xmlns="http://www.w3.org/2000/svg" viewBox="0 0 58 97" width="58" height="97">
	<title>4 option</title>
	<style>
		tspan { white-space:pre }
		.shp0 { fill: #18cfab } 
	</style>
	<g id="4 option">
		<g id="1">
			<path id="Forma 1" class="shp0" d="M16.42 94.83C16.42 96.02 17.38 97 18.56 97L50.24 97C51.42 97 52.38 96.02 52.38 94.83L52.38 89.87L16.42 89.87L16.42 94.83ZM15.7 34.98L15.71 19.13C15.71 17.3 16.4 15.59 17.65 14.31C19.04 12.9 21.04 12.1 23.14 12.1C24.78 12.1 26.35 12.61 27.57 13.52C29.05 14.62 29.98 16.29 30.17 18.2C30.17 18.24 31.01 26.51 31.78 33.9C37.1 30.74 40.69 24.89 40.69 18.2C40.69 8.14 32.63 0 22.69 0C12.74 0 4.68 8.14 4.68 18.2C4.67 25.74 9.22 32.21 15.7 34.98ZM58 55.66C58 53.54 56.66 51.67 54.67 51.02C48.72 49.06 36.72 45.15 34.88 44.78C34.32 44.67 33.76 44.62 33.22 44.62C31.78 44.62 30.51 45.02 29.75 45.7L29.74 45.7C29.74 45.7 29.74 45.7 29.74 45.69C29.73 45.61 26.96 18.58 26.96 18.53C26.74 16.37 24.96 15.34 23.13 15.34C21.05 15.34 18.9 16.66 18.92 19.12L18.89 62.92C18.89 63.44 18.52 63.87 18 63.94C17.99 63.94 17.99 63.94 17.98 63.94C17.94 63.96 17.89 63.96 17.84 63.96C17.83 63.96 17.82 63.96 17.81 63.96C16.35 63.91 13.06 63.87 9.86 59.18C9.43 58.56 9.05 58 8.69 57.48C7.58 55.86 6.09 55.17 4.68 55.17C2.22 55.17 0 57.33 0.54 60.54C1.31 65.24 6.39 76.16 16.4 86.41L52.36 86.41L56 80.21C57.29 78.01 57.98 75.49 57.98 72.93L58 55.66Z" />
		</g>
	</g>
</svg>